<svg width="512" height="512" viewBox="0 0 512 512" fill="none" xmlns="http://www.w3.org/2000/svg">
<path d="M389.304 160L458.36 68.3307C468.152 55.3387 469.731 38.1867 462.456 23.616C455.181 9.04533 440.568 0 424.269 0H130.333C83.272 0 45 38.272 45 85.3333V490.667C45 502.464 54.5573 512 66.3333 512C78.1093 512 87.6667 502.464 87.6667 490.667V320H424.291C440.589 320 455.203 310.933 462.477 296.384C469.752 281.835 468.173 264.683 458.381 251.669L389.304 160ZM87.6667 277.333V85.3333C87.6667 61.8027 106.803 42.6667 130.333 42.6667H424.291L345.571 147.157C339.853 154.752 339.853 165.227 345.571 172.821L424.291 277.312H87.6667V277.333Z"/>
</svg>
