<svg width="28" height="28" viewBox="0 0 28 28" fill="none" xmlns="http://www.w3.org/2000/svg">
<g clip-path="url(#clip0_7_336)">
<path d="M12.8183 10.781C12.9735 10.8771 13.1686 10.881 13.3275 10.7912L21.1314 6.38029C21.561 6.13747 22.0453 6.59779 21.8246 7.03918L17.7299 15.2285C17.6535 15.3814 17.6604 15.5628 17.7484 15.7094L21.6414 22.1978C21.9013 22.631 21.4282 23.1324 20.9807 22.898L14.1167 19.3025C13.9771 19.2294 13.8112 19.2264 13.669 19.2944L5.80315 23.0563C5.36551 23.2656 4.91618 22.7917 5.14848 22.3658L9.22701 14.8885C9.30841 14.7393 9.30841 14.5589 9.22701 14.4096L5.31308 7.23412C5.06731 6.78353 5.5788 6.29941 6.01521 6.56957L12.8183 10.781Z" fill="#FCD8C2"/>
<path d="M10.2777 12.3835C10.4553 12.3417 10.5961 12.2065 10.6449 12.0306L13.0441 3.39352C13.1762 2.91803 13.8442 2.90105 14.0002 3.36922L16.8956 12.0553C16.9497 12.2175 17.0828 12.3408 17.2487 12.3823L24.5895 14.2175C25.0796 14.34 25.0995 15.0291 24.6174 15.1798L17.2214 17.491C17.071 17.5381 16.9515 17.6532 16.8991 17.8019L13.9972 26.0239C13.8357 26.4814 13.1829 26.464 13.046 25.9986L10.6427 17.8274C10.5947 17.6643 10.4672 17.5367 10.3041 17.4888L2.46268 15.1825C1.97027 15.0377 1.98962 14.3336 2.48924 14.2161L10.2777 12.3835Z" fill="#F67E36"/>
</g>
<defs>
<clipPath id="clip0_7_336">
<rect width="28" height="28" fill="white"/>
</clipPath>
</defs>
</svg>
