<svg width="120" height="120" viewBox="0 0 120 120" fill="none" xmlns="http://www.w3.org/2000/svg">
<g clip-path="url(#clip0_87_12213)">
<rect width="120" height="120" rx="60" fill="#FAFAFA"/>
<path d="M80.139 45.2478C80.139 34.1757 70.8538 25.2 59.3999 25.2C47.9459 25.2 38.6607 34.1757 38.6607 45.2478C38.6607 56.3199 47.9459 65.2956 59.3999 65.2956C70.8538 65.2956 80.139 56.3199 80.139 45.2478Z" fill="#D8D9DB"/>
<path d="M99.75 126.75C99.75 143.318 80.2762 165.75 59.3999 165.75C38.5235 165.75 16.5 143.318 16.5 126.75C16.5 110.181 16.4999 71.9999 59.3999 71.9999C99.75 71.9999 99.75 110.181 99.75 126.75Z" fill="#D8D9DB"/>
</g>
<defs>
<clipPath id="clip0_87_12213">
<rect width="120" height="120" rx="60" fill="white"/>
</clipPath>
</defs>
</svg>
